<?xml version="1.0" encoding="utf-8" standalone="no"?>
<!DOCTYPE svg PUBLIC "-//W3C//DTD SVG 1.1//EN"
  "http://www.w3.org/Graphics/SVG/1.1/DTD/svg11.dtd">
<svg xmlns:xlink="http://www.w3.org/1999/xlink" width="864pt" height="468pt" viewBox="0 0 864 468" xmlns="http://www.w3.org/2000/svg" version="1.1">
 <metadata>
  <rdf:RDF xmlns:dc="http://purl.org/dc/elements/1.1/" xmlns:cc="http://creativecommons.org/ns#" xmlns:rdf="http://www.w3.org/1999/02/22-rdf-syntax-ns#">
   <cc:Work>
    <dc:type rdf:resource="http://purl.org/dc/dcmitype/StillImage"/>
    <dc:date>2023-12-12T18:22:33.176276</dc:date>
    <dc:format>image/svg+xml</dc:format>
    <dc:creator>
     <cc:Agent>
      <dc:title>Matplotlib v3.8.0, https://matplotlib.org/</dc:title>
     </cc:Agent>
    </dc:creator>
   </cc:Work>
  </rdf:RDF>
 </metadata>
 <defs>
  <style type="text/css">*{stroke-linejoin: round; stroke-linecap: butt}</style>
 </defs>
 <g id="figure_1">
  <g id="patch_1">
   <path d="M 0 468 
L 864 468 
L 864 0 
L 0 0 
z
" style="fill: #ffffff"/>
  </g>
  <g id="axes_1">
   <g id="patch_2">
    <path d="M 108 416.52 
L 777.6 416.52 
L 777.6 56.16 
L 108 56.16 
z
" style="fill: #ffffff"/>
   </g>
   <g id="line2d_1">
    <path d="M 108 72.54 
L 114.763636 100.708447 
L 121.527273 125.637497 
L 128.290909 147.734743 
L 135.054545 167.350073 
L 141.818182 184.784558 
L 148.581818 200.297864 
L 155.345455 214.11446 
L 162.109091 226.428829 
L 168.872727 237.409858 
L 175.636364 247.20457 
L 182.4 255.941295 
L 189.163636 263.732391 
L 195.927273 270.676589 
L 202.690909 276.86102 
L 209.454545 282.362982 
L 216.218182 287.251459 
L 222.981818 291.588431 
L 229.745455 295.429967 
L 236.509091 298.827112 
L 243.272727 301.826575 
L 250.036364 304.471225 
L 256.8 306.800426 
L 263.563636 308.850247 
L 270.327273 310.653585 
L 277.090909 312.24026 
L 283.854545 313.637098 
L 290.618182 314.868046 
L 297.381818 315.954321 
L 304.145455 316.914586 
L 310.909091 317.765161 
L 317.672727 318.520246 
L 324.436364 319.192151 
L 331.2 319.791513 
L 337.963636 320.327515 
L 344.727273 320.80807 
L 351.490909 321.240002 
L 358.254545 321.629196 
L 365.018182 321.980731 
L 371.781818 322.299002 
L 378.545455 322.587813 
L 385.309091 322.850468 
L 392.072727 323.089841 
L 398.836364 323.308437 
L 405.6 323.508447 
L 412.363636 323.69179 
L 419.127273 323.860154 
L 425.890909 324.015022 
L 432.654545 324.157708 
L 439.418182 324.289372 
L 446.181818 324.411045 
L 452.945455 324.523642 
L 459.709091 324.627981 
L 466.472727 324.724792 
L 473.236364 324.814728 
L 480 324.898376 
L 486.763636 324.976264 
L 493.527273 325.048865 
L 500.290909 325.11661 
L 507.054545 325.179885 
L 513.818182 325.239044 
L 520.581818 325.294403 
L 527.345455 325.346253 
L 534.109091 325.394858 
L 540.872727 325.440459 
L 547.636364 325.483274 
L 554.4 325.523506 
L 561.163636 325.561337 
L 567.927273 325.596937 
L 574.690909 325.63046 
L 581.454545 325.662049 
L 588.218182 325.691834 
L 594.981818 325.719937 
L 601.745455 325.746468 
L 608.509091 325.77153 
L 615.272727 325.795218 
L 622.036364 325.817621 
L 628.8 325.838819 
L 635.563636 325.858888 
L 642.327273 325.877898 
L 649.090909 325.895913 
L 655.854545 325.912995 
L 662.618182 325.929199 
L 669.381818 325.944578 
L 676.145455 325.95918 
L 682.909091 325.973051 
L 689.672727 325.986233 
L 696.436364 325.998766 
L 703.2 326.010687 
L 709.963636 326.022029 
L 716.727273 326.032827 
L 723.490909 326.043109 
L 730.254545 326.052904 
L 737.018182 326.062239 
L 743.781818 326.071138 
L 750.545455 326.079626 
L 757.309091 326.087723 
L 764.072727 326.095451 
L 770.836364 326.102829 
L 777.6 326.109875 
" clip-path="url(#pcadb194c4e)" style="fill: none; stroke: #1f77b4; stroke-width: 3; stroke-linecap: square"/>
   </g>
   <g id="line2d_2">
    <path d="M 108 338.39563 
L 114.763636 338.543706 
L 121.527273 338.707055 
L 128.290909 338.887107 
L 135.054545 339.085406 
L 141.818182 339.303606 
L 148.581818 339.543468 
L 155.345455 339.806843 
L 162.109091 340.095653 
L 168.872727 340.411848 
L 175.636364 340.757356 
L 182.4 341.13401 
L 189.163636 341.54345 
L 195.927273 341.987007 
L 202.690909 342.465563 
L 209.454545 342.979402 
L 216.218182 343.528056 
L 222.981818 344.110178 
L 229.745455 344.723449 
L 236.509091 345.364556 
L 243.272727 346.029242 
L 250.036364 346.71245 
L 256.8 347.408541 
L 263.563636 348.111562 
L 270.327273 348.815532 
L 277.090909 349.514719 
L 283.854545 350.203862 
L 290.618182 350.878343 
L 297.381818 351.534278 
L 304.145455 352.168557 
L 310.909091 352.778824 
L 317.672727 353.363423 
L 324.436364 353.921321 
L 331.2 354.452019 
L 337.963636 354.955463 
L 344.727273 355.431953 
L 351.490909 355.88207 
L 358.254545 356.306604 
L 365.018182 356.706495 
L 371.781818 357.082786 
L 378.545455 357.436584 
L 385.309091 357.769027 
L 392.072727 358.081261 
L 398.836364 358.374422 
L 405.6 358.64962 
L 412.363636 358.907929 
L 419.127273 359.150385 
L 425.890909 359.377973 
L 432.654545 359.591633 
L 439.418182 359.792253 
L 446.181818 359.98067 
L 452.945455 360.157672 
L 459.709091 360.324 
L 466.472727 360.480348 
L 473.236364 360.627363 
L 480 360.765653 
L 486.763636 360.895785 
L 493.527273 361.018285 
L 500.290909 361.133649 
L 507.054545 361.242334 
L 513.818182 361.34477 
L 520.581818 361.441356 
L 527.345455 361.532463 
L 534.109091 361.618437 
L 540.872727 361.699603 
L 547.636364 361.77626 
L 554.4 361.84869 
L 561.163636 361.917153 
L 567.927273 361.981894 
L 574.690909 362.04314 
L 581.454545 362.101103 
L 588.218182 362.155982 
L 594.981818 362.20796 
L 601.745455 362.257212 
L 608.509091 362.303898 
L 615.272727 362.348169 
L 622.036364 362.390167 
L 628.8 362.430023 
L 635.563636 362.46786 
L 642.327273 362.503795 
L 649.090909 362.537934 
L 655.854545 362.570381 
L 662.618182 362.60123 
L 669.381818 362.630569 
L 676.145455 362.658483 
L 682.909091 362.68505 
L 689.672727 362.710344 
L 696.436364 362.734433 
L 703.2 362.757383 
L 709.963636 362.779255 
L 716.727273 362.800106 
L 723.490909 362.819991 
L 730.254545 362.838959 
L 737.018182 362.857059 
L 743.781818 362.874337 
L 750.545455 362.890833 
L 757.309091 362.90659 
L 764.072727 362.921643 
L 770.836364 362.936029 
L 777.6 362.949782 
" clip-path="url(#pcadb194c4e)" style="fill: none; stroke: #ff7f0e; stroke-width: 3; stroke-linecap: square"/>
   </g>
   <g id="line2d_3">
    <path d="M 108 363.300156 
L 114.763636 363.300156 
L 121.527273 363.300156 
L 128.290909 363.300156 
L 135.054545 363.300156 
L 141.818182 363.300156 
L 148.581818 363.300156 
L 155.345455 363.300156 
L 162.109091 363.300156 
L 168.872727 363.300156 
L 175.636364 363.300156 
L 182.4 363.300156 
L 189.163636 363.300156 
L 195.927273 363.300156 
L 202.690909 363.300156 
L 209.454545 363.300156 
L 216.218182 363.300156 
L 222.981818 363.300156 
L 229.745455 363.300156 
L 236.509091 363.300156 
L 243.272727 363.300156 
L 250.036364 363.300156 
L 256.8 363.300156 
L 263.563636 363.300156 
L 270.327273 363.300156 
L 277.090909 363.300156 
L 283.854545 363.300156 
L 290.618182 363.300156 
L 297.381818 363.300156 
L 304.145455 363.300156 
L 310.909091 363.300156 
L 317.672727 363.300156 
L 324.436364 363.300156 
L 331.2 363.300156 
L 337.963636 363.300156 
L 344.727273 363.300156 
L 351.490909 363.300156 
L 358.254545 363.300156 
L 365.018182 363.300156 
L 371.781818 363.300156 
L 378.545455 363.300156 
L 385.309091 363.300156 
L 392.072727 363.300156 
L 398.836364 363.300156 
L 405.6 363.300156 
L 412.363636 363.300156 
L 419.127273 363.300156 
L 425.890909 363.300156 
L 432.654545 363.300156 
L 439.418182 363.300156 
L 446.181818 363.300156 
L 452.945455 363.300156 
L 459.709091 363.300156 
L 466.472727 363.300156 
L 473.236364 363.300156 
L 480 363.300156 
L 486.763636 363.300156 
L 493.527273 363.300156 
L 500.290909 363.300156 
L 507.054545 363.300156 
L 513.818182 363.300156 
L 520.581818 363.300156 
L 527.345455 363.300156 
L 534.109091 363.300156 
L 540.872727 363.300156 
L 547.636364 363.300156 
L 554.4 363.300156 
L 561.163636 363.300156 
L 567.927273 363.300156 
L 574.690909 363.300156 
L 581.454545 363.300156 
L 588.218182 363.300156 
L 594.981818 363.300156 
L 601.745455 363.300156 
L 608.509091 363.300156 
L 615.272727 363.300156 
L 622.036364 363.300156 
L 628.8 363.300156 
L 635.563636 363.300156 
L 642.327273 363.300156 
L 649.090909 363.300156 
L 655.854545 363.300156 
L 662.618182 363.300156 
L 669.381818 363.300156 
L 676.145455 363.300156 
L 682.909091 363.300156 
L 689.672727 363.300156 
L 696.436364 363.300156 
L 703.2 363.300156 
L 709.963636 363.300156 
L 716.727273 363.300156 
L 723.490909 363.300156 
L 730.254545 363.300156 
L 737.018182 363.300156 
L 743.781818 363.300156 
L 750.545455 363.300156 
L 757.309091 363.300156 
L 764.072727 363.300156 
L 770.836364 363.300156 
L 777.6 363.300156 
" clip-path="url(#pcadb194c4e)" style="fill: none; stroke: #2ca02c; stroke-width: 3; stroke-linecap: square"/>
   </g>
   <g id="line2d_4">
    <path d="M 108 390.579753 
L 114.763636 390.691318 
L 121.527273 390.810794 
L 128.290909 390.938346 
L 135.054545 391.074091 
L 141.818182 391.218086 
L 148.581818 391.370325 
L 155.345455 391.530731 
L 162.109091 391.69915 
L 168.872727 391.875349 
L 175.636364 392.059009 
L 182.4 392.249729 
L 189.163636 392.447021 
L 195.927273 392.65032 
L 202.690909 392.858983 
L 209.454545 393.072302 
L 216.218182 393.28951 
L 222.981818 393.509797 
L 229.745455 393.732319 
L 236.509091 393.956213 
L 243.272727 394.180617 
L 250.036364 394.404677 
L 256.8 394.627566 
L 263.563636 394.848493 
L 270.327273 395.066716 
L 277.090909 395.281553 
L 283.854545 395.492384 
L 290.618182 395.698659 
L 297.381818 395.8999 
L 304.145455 396.095702 
L 310.909091 396.285731 
L 317.672727 396.469724 
L 324.436364 396.647482 
L 331.2 396.818868 
L 337.963636 396.983801 
L 344.727273 397.142252 
L 351.490909 397.294235 
L 358.254545 397.439806 
L 365.018182 397.579051 
L 371.781818 397.712089 
L 378.545455 397.839062 
L 385.309091 397.960128 
L 392.072727 398.075464 
L 398.836364 398.185258 
L 405.6 398.289706 
L 412.363636 398.389008 
L 419.127273 398.483371 
L 425.890909 398.572998 
L 432.654545 398.658096 
L 439.418182 398.738866 
L 446.181818 398.815509 
L 452.945455 398.888219 
L 459.709091 398.957186 
L 466.472727 399.022595 
L 473.236364 399.084622 
L 480 399.14344 
L 486.763636 399.199212 
L 493.527273 399.252098 
L 500.290909 399.302247 
L 507.054545 399.349804 
L 513.818182 399.394907 
L 520.581818 399.437685 
L 527.345455 399.478265 
L 534.109091 399.516763 
L 540.872727 399.553292 
L 547.636364 399.587958 
L 554.4 399.620862 
L 561.163636 399.6521 
L 567.927273 399.68176 
L 574.690909 399.70993 
L 581.454545 399.736689 
L 588.218182 399.762113 
L 594.981818 399.786275 
L 601.745455 399.809242 
L 608.509091 399.831079 
L 615.272727 399.851846 
L 622.036364 399.871601 
L 628.8 399.890397 
L 635.563636 399.908286 
L 642.327273 399.925315 
L 649.090909 399.94153 
L 655.854545 399.956974 
L 662.618182 399.971688 
L 669.381818 399.985708 
L 676.145455 399.999073 
L 682.909091 400.011815 
L 689.672727 400.023967 
L 696.436364 400.035558 
L 703.2 400.046619 
L 709.963636 400.057175 
L 716.727273 400.067253 
L 723.490909 400.076876 
L 730.254545 400.086068 
L 737.018182 400.09485 
L 743.781818 400.103242 
L 750.545455 400.111264 
L 757.309091 400.118934 
L 764.072727 400.126269 
L 770.836364 400.133286 
L 777.6 400.14 
" clip-path="url(#pcadb194c4e)" style="fill: none; stroke: #d62728; stroke-width: 3; stroke-linecap: square"/>
   </g>
   <g id="patch_3">
    <path d="M 108 416.52 
L 108 56.16 
L 266.167135 56.16 
L 266.167135 416.52 
z
" clip-path="url(#pcadb194c4e)" style="fill: #b2ccff; opacity: 0.2; stroke: #b2ccff; stroke-linejoin: miter"/>
   </g>
   <g id="matplotlib.axis_1">
    <g id="xtick_1">
     <g id="line2d_5">
      <defs>
       <path id="m9a89f41c21" d="M 0 0 
L 0 -6 
" style="stroke: #000000"/>
      </defs>
      <g>
       <use xlink:href="#m9a89f41c21" x="143.242105" y="416.52" style="stroke: #000000"/>
      </g>
     </g>
     <g id="line2d_6">
      <defs>
       <path id="mcce1dc0766" d="M 0 0 
L 0 6 
" style="stroke: #000000"/>
      </defs>
      <g>
       <use xlink:href="#mcce1dc0766" x="143.242105" y="56.16" style="stroke: #000000"/>
      </g>
     </g>
     <g id="text_1">
      <!-- 6 -->
      <g transform="translate(140.060855 427.618438) scale(0.1 -0.1)">
       <defs>
        <path id="DejaVuSerif-36" d="M 2094 219 
Q 2534 219 2771 542 
Q 3009 866 3009 1472 
Q 3009 2078 2771 2401 
Q 2534 2725 2094 2725 
Q 1647 2725 1412 2412 
Q 1178 2100 1178 1509 
Q 1178 888 1415 553 
Q 1653 219 2094 219 
z
M 1075 2569 
Q 1288 2803 1556 2918 
Q 1825 3034 2163 3034 
Q 2859 3034 3264 2615 
Q 3669 2197 3669 1472 
Q 3669 763 3233 336 
Q 2797 -91 2069 -91 
Q 1278 -91 853 498 
Q 428 1088 428 2181 
Q 428 3406 931 4078 
Q 1434 4750 2350 4750 
Q 2597 4750 2869 4703 
Q 3141 4656 3425 4563 
L 3425 3794 
L 3072 3794 
Q 3034 4109 2831 4275 
Q 2628 4441 2284 4441 
Q 1678 4441 1381 3981 
Q 1084 3522 1075 2569 
z
" transform="scale(0.015625)"/>
       </defs>
       <use xlink:href="#DejaVuSerif-36"/>
      </g>
     </g>
    </g>
    <g id="xtick_2">
     <g id="line2d_7">
      <g>
       <use xlink:href="#m9a89f41c21" x="284.210526" y="416.52" style="stroke: #000000"/>
      </g>
     </g>
     <g id="line2d_8">
      <g>
       <use xlink:href="#mcce1dc0766" x="284.210526" y="56.16" style="stroke: #000000"/>
      </g>
     </g>
     <g id="text_2">
      <!-- 8 -->
      <g transform="translate(281.029276 427.618438) scale(0.1 -0.1)">
       <defs>
        <path id="DejaVuSerif-38" d="M 2981 1275 
Q 2981 1775 2732 2051 
Q 2484 2328 2034 2328 
Q 1584 2328 1336 2051 
Q 1088 1775 1088 1275 
Q 1088 772 1336 495 
Q 1584 219 2034 219 
Q 2484 219 2732 495 
Q 2981 772 2981 1275 
z
M 2853 3541 
Q 2853 3966 2637 4203 
Q 2422 4441 2034 4441 
Q 1650 4441 1433 4203 
Q 1216 3966 1216 3541 
Q 1216 3113 1433 2875 
Q 1650 2638 2034 2638 
Q 2422 2638 2637 2875 
Q 2853 3113 2853 3541 
z
M 2516 2484 
Q 3047 2413 3344 2092 
Q 3641 1772 3641 1275 
Q 3641 619 3225 264 
Q 2809 -91 2034 -91 
Q 1263 -91 845 264 
Q 428 619 428 1275 
Q 428 1772 725 2092 
Q 1022 2413 1556 2484 
Q 1084 2569 832 2842 
Q 581 3116 581 3541 
Q 581 4103 968 4426 
Q 1356 4750 2034 4750 
Q 2713 4750 3100 4426 
Q 3488 4103 3488 3541 
Q 3488 3116 3236 2842 
Q 2984 2569 2516 2484 
z
" transform="scale(0.015625)"/>
       </defs>
       <use xlink:href="#DejaVuSerif-38"/>
      </g>
     </g>
    </g>
    <g id="xtick_3">
     <g id="line2d_9">
      <g>
       <use xlink:href="#m9a89f41c21" x="425.178947" y="416.52" style="stroke: #000000"/>
      </g>
     </g>
     <g id="line2d_10">
      <g>
       <use xlink:href="#mcce1dc0766" x="425.178947" y="56.16" style="stroke: #000000"/>
      </g>
     </g>
     <g id="text_3">
      <!-- 10 -->
      <g transform="translate(418.816447 427.618438) scale(0.1 -0.1)">
       <defs>
        <path id="DejaVuSerif-31" d="M 909 0 
L 909 331 
L 1722 331 
L 1722 4213 
L 781 3603 
L 781 4013 
L 1919 4750 
L 2350 4750 
L 2350 331 
L 3163 331 
L 3163 0 
L 909 0 
z
" transform="scale(0.015625)"/>
        <path id="DejaVuSerif-30" d="M 2034 219 
Q 2513 219 2750 744 
Q 2988 1269 2988 2328 
Q 2988 3391 2750 3916 
Q 2513 4441 2034 4441 
Q 1556 4441 1318 3916 
Q 1081 3391 1081 2328 
Q 1081 1269 1318 744 
Q 1556 219 2034 219 
z
M 2034 -91 
Q 1275 -91 848 546 
Q 422 1184 422 2328 
Q 422 3475 848 4112 
Q 1275 4750 2034 4750 
Q 2797 4750 3222 4112 
Q 3647 3475 3647 2328 
Q 3647 1184 3222 546 
Q 2797 -91 2034 -91 
z
" transform="scale(0.015625)"/>
       </defs>
       <use xlink:href="#DejaVuSerif-31"/>
       <use xlink:href="#DejaVuSerif-30" x="63.623047"/>
      </g>
     </g>
    </g>
    <g id="xtick_4">
     <g id="line2d_11">
      <g>
       <use xlink:href="#m9a89f41c21" x="566.147368" y="416.52" style="stroke: #000000"/>
      </g>
     </g>
     <g id="line2d_12">
      <g>
       <use xlink:href="#mcce1dc0766" x="566.147368" y="56.16" style="stroke: #000000"/>
      </g>
     </g>
     <g id="text_4">
      <!-- 12 -->
      <g transform="translate(559.784868 427.618438) scale(0.1 -0.1)">
       <defs>
        <path id="DejaVuSerif-32" d="M 819 3553 
L 469 3553 
L 469 4384 
Q 803 4563 1142 4656 
Q 1481 4750 1806 4750 
Q 2534 4750 2956 4397 
Q 3378 4044 3378 3438 
Q 3378 2753 2422 1800 
Q 2347 1728 2309 1691 
L 1131 513 
L 3078 513 
L 3078 1088 
L 3444 1088 
L 3444 0 
L 434 0 
L 434 341 
L 1850 1753 
Q 2319 2222 2519 2614 
Q 2719 3006 2719 3438 
Q 2719 3909 2473 4175 
Q 2228 4441 1797 4441 
Q 1350 4441 1106 4219 
Q 863 3997 819 3553 
z
" transform="scale(0.015625)"/>
       </defs>
       <use xlink:href="#DejaVuSerif-31"/>
       <use xlink:href="#DejaVuSerif-32" x="63.623047"/>
      </g>
     </g>
    </g>
    <g id="xtick_5">
     <g id="line2d_13">
      <g>
       <use xlink:href="#m9a89f41c21" x="707.115789" y="416.52" style="stroke: #000000"/>
      </g>
     </g>
     <g id="line2d_14">
      <g>
       <use xlink:href="#mcce1dc0766" x="707.115789" y="56.16" style="stroke: #000000"/>
      </g>
     </g>
     <g id="text_5">
      <!-- 14 -->
      <g transform="translate(700.753289 427.618438) scale(0.1 -0.1)">
       <defs>
        <path id="DejaVuSerif-34" d="M 2234 1581 
L 2234 4063 
L 641 1581 
L 2234 1581 
z
M 3609 0 
L 1484 0 
L 1484 331 
L 2234 331 
L 2234 1247 
L 197 1247 
L 197 1588 
L 2241 4750 
L 2859 4750 
L 2859 1581 
L 3750 1581 
L 3750 1247 
L 2859 1247 
L 2859 331 
L 3609 331 
L 3609 0 
z
" transform="scale(0.015625)"/>
       </defs>
       <use xlink:href="#DejaVuSerif-31"/>
       <use xlink:href="#DejaVuSerif-34" x="63.623047"/>
      </g>
     </g>
    </g>
    <g id="text_6">
     <!-- Distance between Atoms (μm) -->
     <g transform="translate(351.310313 442.81625) scale(0.12 -0.12)">
      <defs>
       <path id="DejaVuSerif-44" d="M 1581 331 
L 2163 331 
Q 3072 331 3558 850 
Q 4044 1369 4044 2338 
Q 4044 3306 3559 3818 
Q 3075 4331 2163 4331 
L 1581 4331 
L 1581 331 
z
M 353 0 
L 353 331 
L 947 331 
L 947 4331 
L 353 4331 
L 353 4666 
L 2209 4666 
Q 3416 4666 4089 4050 
Q 4763 3434 4763 2338 
Q 4763 1238 4088 619 
Q 3413 0 2209 0 
L 353 0 
z
" transform="scale(0.015625)"/>
       <path id="DejaVuSerif-69" d="M 622 4353 
Q 622 4497 726 4603 
Q 831 4709 978 4709 
Q 1122 4709 1226 4603 
Q 1331 4497 1331 4353 
Q 1331 4206 1228 4103 
Q 1125 4000 978 4000 
Q 831 4000 726 4103 
Q 622 4206 622 4353 
z
M 1356 331 
L 1900 331 
L 1900 0 
L 231 0 
L 231 331 
L 781 331 
L 781 2988 
L 231 2988 
L 231 3322 
L 1356 3322 
L 1356 331 
z
" transform="scale(0.015625)"/>
       <path id="DejaVuSerif-73" d="M 359 184 
L 359 959 
L 691 959 
Q 703 588 923 403 
Q 1144 219 1575 219 
Q 1963 219 2166 364 
Q 2369 509 2369 788 
Q 2369 1006 2220 1140 
Q 2072 1275 1594 1428 
L 1178 1569 
Q 750 1706 558 1912 
Q 366 2119 366 2438 
Q 366 2894 700 3153 
Q 1034 3413 1625 3413 
Q 1888 3413 2178 3344 
Q 2469 3275 2778 3144 
L 2778 2419 
L 2447 2419 
Q 2434 2741 2221 2922 
Q 2009 3103 1644 3103 
Q 1281 3103 1095 2975 
Q 909 2847 909 2591 
Q 909 2381 1050 2254 
Q 1191 2128 1613 1997 
L 2069 1856 
Q 2541 1709 2748 1489 
Q 2956 1269 2956 922 
Q 2956 450 2595 179 
Q 2234 -91 1600 -91 
Q 1278 -91 972 -22 
Q 666 47 359 184 
z
" transform="scale(0.015625)"/>
       <path id="DejaVuSerif-74" d="M 691 2988 
L 184 2988 
L 184 3322 
L 691 3322 
L 691 4353 
L 1269 4353 
L 1269 3322 
L 2350 3322 
L 2350 2988 
L 1269 2988 
L 1269 878 
Q 1269 456 1350 337 
Q 1431 219 1650 219 
Q 1875 219 1978 351 
Q 2081 484 2088 781 
L 2522 781 
Q 2497 328 2275 118 
Q 2053 -91 1600 -91 
Q 1103 -91 897 129 
Q 691 350 691 878 
L 691 2988 
z
" transform="scale(0.015625)"/>
       <path id="DejaVuSerif-61" d="M 2547 1044 
L 2547 1747 
L 1806 1747 
Q 1378 1747 1168 1562 
Q 959 1378 959 997 
Q 959 650 1171 447 
Q 1384 244 1747 244 
Q 2106 244 2326 466 
Q 2547 688 2547 1044 
z
M 3122 2075 
L 3122 331 
L 3634 331 
L 3634 0 
L 2547 0 
L 2547 359 
Q 2356 128 2106 18 
Q 1856 -91 1522 -91 
Q 969 -91 644 203 
Q 319 497 319 997 
Q 319 1513 691 1797 
Q 1063 2081 1741 2081 
L 2547 2081 
L 2547 2309 
Q 2547 2688 2317 2895 
Q 2088 3103 1672 3103 
Q 1328 3103 1125 2947 
Q 922 2791 872 2484 
L 575 2484 
L 575 3156 
Q 875 3284 1158 3348 
Q 1441 3413 1709 3413 
Q 2400 3413 2761 3070 
Q 3122 2728 3122 2075 
z
" transform="scale(0.015625)"/>
       <path id="DejaVuSerif-6e" d="M 263 0 
L 263 331 
L 781 331 
L 781 2988 
L 231 2988 
L 231 3322 
L 1356 3322 
L 1356 2731 
Q 1516 3069 1770 3241 
Q 2025 3413 2363 3413 
Q 2913 3413 3172 3097 
Q 3431 2781 3431 2113 
L 3431 331 
L 3944 331 
L 3944 0 
L 2356 0 
L 2356 331 
L 2853 331 
L 2853 1931 
Q 2853 2541 2703 2767 
Q 2553 2994 2175 2994 
Q 1775 2994 1565 2701 
Q 1356 2409 1356 1850 
L 1356 331 
L 1856 331 
L 1856 0 
L 263 0 
z
" transform="scale(0.015625)"/>
       <path id="DejaVuSerif-63" d="M 3291 997 
Q 3169 466 2822 187 
Q 2475 -91 1925 -91 
Q 1200 -91 759 389 
Q 319 869 319 1663 
Q 319 2459 759 2936 
Q 1200 3413 1925 3413 
Q 2241 3413 2553 3339 
Q 2866 3266 3181 3116 
L 3181 2266 
L 2847 2266 
Q 2781 2703 2561 2903 
Q 2341 3103 1931 3103 
Q 1466 3103 1228 2742 
Q 991 2381 991 1663 
Q 991 944 1227 581 
Q 1463 219 1931 219 
Q 2303 219 2525 412 
Q 2747 606 2828 997 
L 3291 997 
z
" transform="scale(0.015625)"/>
       <path id="DejaVuSerif-65" d="M 3469 1600 
L 991 1600 
L 991 1575 
Q 991 903 1244 561 
Q 1497 219 1991 219 
Q 2369 219 2611 417 
Q 2853 616 2950 1006 
L 3413 1006 
Q 3275 459 2904 184 
Q 2534 -91 1931 -91 
Q 1203 -91 761 389 
Q 319 869 319 1663 
Q 319 2450 753 2931 
Q 1188 3413 1894 3413 
Q 2647 3413 3050 2948 
Q 3453 2484 3469 1600 
z
M 2791 1931 
Q 2772 2513 2545 2808 
Q 2319 3103 1894 3103 
Q 1497 3103 1269 2806 
Q 1041 2509 991 1931 
L 2791 1931 
z
" transform="scale(0.015625)"/>
       <path id="DejaVuSerif-20" transform="scale(0.015625)"/>
       <path id="DejaVuSerif-62" d="M 738 331 
L 738 4531 
L 184 4531 
L 184 4863 
L 1313 4863 
L 1313 2803 
Q 1481 3116 1742 3264 
Q 2003 3413 2388 3413 
Q 3000 3413 3387 2928 
Q 3775 2444 3775 1663 
Q 3775 881 3387 395 
Q 3000 -91 2388 -91 
Q 2003 -91 1742 57 
Q 1481 206 1313 519 
L 1313 0 
L 184 0 
L 184 331 
L 738 331 
z
M 1313 1497 
Q 1313 897 1542 583 
Q 1772 269 2209 269 
Q 2650 269 2876 622 
Q 3103 975 3103 1663 
Q 3103 2353 2876 2703 
Q 2650 3053 2209 3053 
Q 1772 3053 1542 2737 
Q 1313 2422 1313 1825 
L 1313 1497 
z
" transform="scale(0.015625)"/>
       <path id="DejaVuSerif-77" d="M 3072 3322 
L 3922 728 
L 4672 2988 
L 4191 2988 
L 4191 3322 
L 5394 3322 
L 5394 2988 
L 5025 2988 
L 4038 0 
L 3559 0 
L 2741 2484 
L 1919 0 
L 1459 0 
L 475 2988 
L 103 2988 
L 103 3322 
L 1606 3322 
L 1606 2988 
L 1069 2988 
L 1813 728 
L 2669 3322 
L 3072 3322 
z
" transform="scale(0.015625)"/>
       <path id="DejaVuSerif-41" d="M 1281 1691 
L 2994 1691 
L 2138 3909 
L 1281 1691 
z
M -38 0 
L -38 331 
L 372 331 
L 2034 4666 
L 2559 4666 
L 4225 331 
L 4684 331 
L 4684 0 
L 2988 0 
L 2988 331 
L 3506 331 
L 3116 1356 
L 1153 1356 
L 763 331 
L 1275 331 
L 1275 0 
L -38 0 
z
" transform="scale(0.015625)"/>
       <path id="DejaVuSerif-6f" d="M 1925 219 
Q 2388 219 2623 584 
Q 2859 950 2859 1663 
Q 2859 2375 2623 2739 
Q 2388 3103 1925 3103 
Q 1463 3103 1227 2739 
Q 991 2375 991 1663 
Q 991 950 1228 584 
Q 1466 219 1925 219 
z
M 1925 -91 
Q 1200 -91 759 389 
Q 319 869 319 1663 
Q 319 2456 758 2934 
Q 1197 3413 1925 3413 
Q 2653 3413 3092 2934 
Q 3531 2456 3531 1663 
Q 3531 869 3092 389 
Q 2653 -91 1925 -91 
z
" transform="scale(0.015625)"/>
       <path id="DejaVuSerif-6d" d="M 3316 2675 
Q 3481 3041 3739 3227 
Q 3997 3413 4341 3413 
Q 4863 3413 5119 3089 
Q 5375 2766 5375 2113 
L 5375 331 
L 5894 331 
L 5894 0 
L 4300 0 
L 4300 331 
L 4800 331 
L 4800 2047 
Q 4800 2556 4650 2772 
Q 4500 2988 4153 2988 
Q 3769 2988 3567 2697 
Q 3366 2406 3366 1850 
L 3366 331 
L 3866 331 
L 3866 0 
L 2291 0 
L 2291 331 
L 2791 331 
L 2791 2069 
Q 2791 2566 2641 2777 
Q 2491 2988 2144 2988 
Q 1759 2988 1557 2697 
Q 1356 2406 1356 1850 
L 1356 331 
L 1856 331 
L 1856 0 
L 263 0 
L 263 331 
L 781 331 
L 781 2994 
L 231 2994 
L 231 3322 
L 1356 3322 
L 1356 2731 
Q 1516 3063 1762 3238 
Q 2009 3413 2322 3413 
Q 2709 3413 2968 3220 
Q 3228 3028 3316 2675 
z
" transform="scale(0.015625)"/>
       <path id="DejaVuSerif-28" d="M 2041 -997 
Q 1281 -656 893 83 
Q 506 822 506 1931 
Q 506 3044 893 3783 
Q 1281 4522 2041 4863 
L 2041 4556 
Q 1559 4225 1350 3623 
Q 1141 3022 1141 1931 
Q 1141 844 1350 242 
Q 1559 -359 2041 -691 
L 2041 -997 
z
" transform="scale(0.015625)"/>
       <path id="DejaVuSerif-3bc" d="M 2309 3322 
L 3384 3322 
L 3384 325 
L 3928 325 
L 3928 0 
L 2809 0 
L 2809 588 
Q 2647 256 2417 82 
Q 2188 -91 1906 -91 
Q 1728 -91 1581 -34 
Q 1434 22 1313 134 
L 1313 -1331 
L 738 -1331 
L 738 2988 
L 219 2988 
L 219 3322 
L 1313 3322 
L 1313 1388 
Q 1313 781 1463 556 
Q 1613 331 1991 331 
Q 2391 331 2600 625 
Q 2809 919 2809 1478 
L 2809 2988 
L 2309 2988 
L 2309 3322 
z
" transform="scale(0.015625)"/>
       <path id="DejaVuSerif-29" d="M 453 -997 
L 453 -691 
Q 934 -359 1145 242 
Q 1356 844 1356 1931 
Q 1356 3022 1145 3623 
Q 934 4225 453 4556 
L 453 4863 
Q 1216 4522 1603 3783 
Q 1991 3044 1991 1931 
Q 1991 822 1603 83 
Q 1216 -656 453 -997 
z
" transform="scale(0.015625)"/>
      </defs>
      <use xlink:href="#DejaVuSerif-44"/>
      <use xlink:href="#DejaVuSerif-69" x="80.175781"/>
      <use xlink:href="#DejaVuSerif-73" x="112.158203"/>
      <use xlink:href="#DejaVuSerif-74" x="163.476562"/>
      <use xlink:href="#DejaVuSerif-61" x="203.662109"/>
      <use xlink:href="#DejaVuSerif-6e" x="263.28125"/>
      <use xlink:href="#DejaVuSerif-63" x="327.685547"/>
      <use xlink:href="#DejaVuSerif-65" x="383.691406"/>
      <use xlink:href="#DejaVuSerif-20" x="442.871094"/>
      <use xlink:href="#DejaVuSerif-62" x="474.658203"/>
      <use xlink:href="#DejaVuSerif-65" x="538.671875"/>
      <use xlink:href="#DejaVuSerif-74" x="597.851562"/>
      <use xlink:href="#DejaVuSerif-77" x="638.037109"/>
      <use xlink:href="#DejaVuSerif-65" x="723.632812"/>
      <use xlink:href="#DejaVuSerif-65" x="782.8125"/>
      <use xlink:href="#DejaVuSerif-6e" x="841.992188"/>
      <use xlink:href="#DejaVuSerif-20" x="906.396484"/>
      <use xlink:href="#DejaVuSerif-41" x="938.183594"/>
      <use xlink:href="#DejaVuSerif-74" x="1008.650391"/>
      <use xlink:href="#DejaVuSerif-6f" x="1048.835938"/>
      <use xlink:href="#DejaVuSerif-6d" x="1109.041016"/>
      <use xlink:href="#DejaVuSerif-73" x="1203.865234"/>
      <use xlink:href="#DejaVuSerif-20" x="1255.183594"/>
      <use xlink:href="#DejaVuSerif-28" x="1286.970703"/>
      <use xlink:href="#DejaVuSerif-3bc" x="1325.984375"/>
      <use xlink:href="#DejaVuSerif-6d" x="1390.974609"/>
      <use xlink:href="#DejaVuSerif-29" x="1485.798828"/>
     </g>
    </g>
   </g>
   <g id="matplotlib.axis_2">
    <g id="ytick_1">
     <g id="line2d_15">
      <defs>
       <path id="m41c8344e5c" d="M 0 0 
L 6 0 
" style="stroke: #000000"/>
      </defs>
      <g>
       <use xlink:href="#m41c8344e5c" x="108" y="363.300156" style="stroke: #000000"/>
      </g>
     </g>
     <g id="line2d_16">
      <defs>
       <path id="mdf0bf89795" d="M 0 0 
L -6 0 
" style="stroke: #000000"/>
      </defs>
      <g>
       <use xlink:href="#mdf0bf89795" x="777.6" y="363.300156" style="stroke: #000000"/>
      </g>
     </g>
     <g id="text_7">
      <!-- 0 -->
      <g transform="translate(98.1375 367.099375) scale(0.1 -0.1)">
       <use xlink:href="#DejaVuSerif-30"/>
      </g>
     </g>
    </g>
    <g id="ytick_2">
     <g id="line2d_17">
      <g>
       <use xlink:href="#m41c8344e5c" x="108" y="289.665154" style="stroke: #000000"/>
      </g>
     </g>
     <g id="line2d_18">
      <g>
       <use xlink:href="#mdf0bf89795" x="777.6" y="289.665154" style="stroke: #000000"/>
      </g>
     </g>
     <g id="text_8">
      <!-- 50 -->
      <g transform="translate(91.775 293.464373) scale(0.1 -0.1)">
       <defs>
        <path id="DejaVuSerif-35" d="M 3219 4666 
L 3219 4153 
L 1081 4153 
L 1081 2816 
Q 1244 2928 1461 2984 
Q 1678 3041 1947 3041 
Q 2703 3041 3140 2622 
Q 3578 2203 3578 1478 
Q 3578 738 3136 323 
Q 2694 -91 1894 -91 
Q 1572 -91 1234 -12 
Q 897 66 544 225 
L 544 1131 
L 897 1131 
Q 925 688 1179 453 
Q 1434 219 1894 219 
Q 2388 219 2653 544 
Q 2919 869 2919 1478 
Q 2919 2084 2655 2407 
Q 2391 2731 1894 2731 
Q 1613 2731 1398 2631 
Q 1184 2531 1019 2322 
L 750 2322 
L 750 4666 
L 3219 4666 
z
" transform="scale(0.015625)"/>
       </defs>
       <use xlink:href="#DejaVuSerif-35"/>
       <use xlink:href="#DejaVuSerif-30" x="63.623047"/>
      </g>
     </g>
    </g>
    <g id="ytick_3">
     <g id="line2d_19">
      <g>
       <use xlink:href="#m41c8344e5c" x="108" y="216.030151" style="stroke: #000000"/>
      </g>
     </g>
     <g id="line2d_20">
      <g>
       <use xlink:href="#mdf0bf89795" x="777.6" y="216.030151" style="stroke: #000000"/>
      </g>
     </g>
     <g id="text_9">
      <!-- 100 -->
      <g transform="translate(85.4125 219.82937) scale(0.1 -0.1)">
       <use xlink:href="#DejaVuSerif-31"/>
       <use xlink:href="#DejaVuSerif-30" x="63.623047"/>
       <use xlink:href="#DejaVuSerif-30" x="127.246094"/>
      </g>
     </g>
    </g>
    <g id="ytick_4">
     <g id="line2d_21">
      <g>
       <use xlink:href="#m41c8344e5c" x="108" y="142.395149" style="stroke: #000000"/>
      </g>
     </g>
     <g id="line2d_22">
      <g>
       <use xlink:href="#mdf0bf89795" x="777.6" y="142.395149" style="stroke: #000000"/>
      </g>
     </g>
     <g id="text_10">
      <!-- 150 -->
      <g transform="translate(85.4125 146.194368) scale(0.1 -0.1)">
       <use xlink:href="#DejaVuSerif-31"/>
       <use xlink:href="#DejaVuSerif-35" x="63.623047"/>
       <use xlink:href="#DejaVuSerif-30" x="127.246094"/>
      </g>
     </g>
    </g>
    <g id="ytick_5">
     <g id="line2d_23">
      <g>
       <use xlink:href="#m41c8344e5c" x="108" y="68.760147" style="stroke: #000000"/>
      </g>
     </g>
     <g id="line2d_24">
      <g>
       <use xlink:href="#mdf0bf89795" x="777.6" y="68.760147" style="stroke: #000000"/>
      </g>
     </g>
     <g id="text_11">
      <!-- 200 -->
      <g transform="translate(85.4125 72.559366) scale(0.1 -0.1)">
       <use xlink:href="#DejaVuSerif-32"/>
       <use xlink:href="#DejaVuSerif-30" x="63.623047"/>
       <use xlink:href="#DejaVuSerif-30" x="127.246094"/>
      </g>
     </g>
    </g>
    <g id="text_12">
     <!-- Energy Eigenvalue ($ħ^{-1}$) -->
     <g transform="translate(78.6525 311.58) rotate(-90) scale(0.12 -0.12)">
      <defs>
       <path id="DejaVuSerif-45" d="M 353 0 
L 353 331 
L 947 331 
L 947 4331 
L 353 4331 
L 353 4666 
L 4109 4666 
L 4109 3628 
L 3725 3628 
L 3725 4281 
L 1581 4281 
L 1581 2719 
L 3109 2719 
L 3109 3303 
L 3494 3303 
L 3494 1753 
L 3109 1753 
L 3109 2338 
L 1581 2338 
L 1581 384 
L 3775 384 
L 3775 1038 
L 4159 1038 
L 4159 0 
L 353 0 
z
" transform="scale(0.015625)"/>
       <path id="DejaVuSerif-72" d="M 3059 3328 
L 3059 2497 
L 2728 2497 
Q 2713 2744 2591 2866 
Q 2469 2988 2234 2988 
Q 1809 2988 1582 2694 
Q 1356 2400 1356 1850 
L 1356 331 
L 2022 331 
L 2022 0 
L 263 0 
L 263 331 
L 781 331 
L 781 2994 
L 231 2994 
L 231 3322 
L 1356 3322 
L 1356 2731 
Q 1525 3078 1790 3245 
Q 2056 3413 2438 3413 
Q 2578 3413 2733 3391 
Q 2888 3369 3059 3328 
z
" transform="scale(0.015625)"/>
       <path id="DejaVuSerif-67" d="M 3359 2988 
L 3359 72 
Q 3359 -644 2965 -1033 
Q 2572 -1422 1844 -1422 
Q 1516 -1422 1216 -1362 
Q 916 -1303 641 -1184 
L 641 -488 
L 941 -488 
Q 997 -813 1206 -963 
Q 1416 -1113 1806 -1113 
Q 2313 -1113 2548 -827 
Q 2784 -541 2784 72 
L 2784 519 
Q 2616 206 2355 57 
Q 2094 -91 1709 -91 
Q 1097 -91 708 395 
Q 319 881 319 1663 
Q 319 2444 706 2928 
Q 1094 3413 1709 3413 
Q 2094 3413 2355 3264 
Q 2616 3116 2784 2803 
L 2784 3322 
L 3909 3322 
L 3909 2988 
L 3359 2988 
z
M 2784 1825 
Q 2784 2422 2554 2737 
Q 2325 3053 1888 3053 
Q 1444 3053 1217 2703 
Q 991 2353 991 1663 
Q 991 975 1217 622 
Q 1444 269 1888 269 
Q 2325 269 2554 583 
Q 2784 897 2784 1497 
L 2784 1825 
z
" transform="scale(0.015625)"/>
       <path id="DejaVuSerif-79" d="M 1381 -609 
L 1600 -56 
L 359 2988 
L -19 2988 
L -19 3322 
L 1509 3322 
L 1509 2988 
L 978 2988 
L 1913 703 
L 2847 2988 
L 2350 2988 
L 2350 3322 
L 3597 3322 
L 3597 2988 
L 3225 2988 
L 1703 -750 
Q 1547 -1138 1356 -1280 
Q 1166 -1422 819 -1422 
Q 672 -1422 517 -1397 
Q 363 -1372 206 -1325 
L 206 -691 
L 500 -691 
Q 519 -903 608 -995 
Q 697 -1088 884 -1088 
Q 1056 -1088 1161 -992 
Q 1266 -897 1381 -609 
z
" transform="scale(0.015625)"/>
       <path id="DejaVuSerif-76" d="M 1581 0 
L 359 2988 
L -19 2988 
L -19 3322 
L 1509 3322 
L 1509 2988 
L 978 2988 
L 1913 703 
L 2847 2988 
L 2350 2988 
L 2350 3322 
L 3597 3322 
L 3597 2988 
L 3225 2988 
L 2003 0 
L 1581 0 
z
" transform="scale(0.015625)"/>
       <path id="DejaVuSerif-6c" d="M 1313 331 
L 1856 331 
L 1856 0 
L 184 0 
L 184 331 
L 738 331 
L 738 4531 
L 184 4531 
L 184 4863 
L 1313 4863 
L 1313 331 
z
" transform="scale(0.015625)"/>
       <path id="DejaVuSerif-75" d="M 2266 3322 
L 3341 3322 
L 3341 331 
L 3884 331 
L 3884 0 
L 2766 0 
L 2766 588 
Q 2606 256 2353 82 
Q 2100 -91 1766 -91 
Q 1213 -91 952 223 
Q 691 538 691 1209 
L 691 2988 
L 172 2988 
L 172 3322 
L 1269 3322 
L 1269 1388 
Q 1269 781 1417 556 
Q 1566 331 1947 331 
Q 2347 331 2556 625 
Q 2766 919 2766 1478 
L 2766 2988 
L 2266 2988 
L 2266 3322 
z
" transform="scale(0.015625)"/>
       <path id="DejaVuSans-Oblique-127" d="M 3634 2113 
L 3225 0 
L 2650 0 
L 3056 2094 
Q 3094 2291 3094 2450 
Q 3094 2688 3006 2838 
Q 2863 3084 2475 3084 
Q 2009 3084 1681 2788 
Q 1356 2491 1256 1978 
L 872 0 
L 294 0 
L 1066 3969 
L 675 3969 
L 775 4481 
L 1166 4481 
L 1238 4863 
L 1816 4863 
L 1744 4481 
L 2844 4481 
L 2744 3969 
L 1644 3969 
L 1447 2956 
Q 1713 3272 2025 3428 
Q 2331 3584 2700 3584 
Q 3300 3584 3538 3213 
Q 3688 2975 3688 2606 
Q 3688 2381 3634 2113 
z
" transform="scale(0.015625)"/>
       <path id="DejaVuSans-2212" d="M 678 2272 
L 4684 2272 
L 4684 1741 
L 678 1741 
L 678 2272 
z
" transform="scale(0.015625)"/>
       <path id="DejaVuSans-31" d="M 794 531 
L 1825 531 
L 1825 4091 
L 703 3866 
L 703 4441 
L 1819 4666 
L 2450 4666 
L 2450 531 
L 3481 531 
L 3481 0 
L 794 0 
L 794 531 
z
" transform="scale(0.015625)"/>
      </defs>
      <use xlink:href="#DejaVuSerif-45" transform="translate(0 0.684375)"/>
      <use xlink:href="#DejaVuSerif-6e" transform="translate(72.998047 0.684375)"/>
      <use xlink:href="#DejaVuSerif-65" transform="translate(137.402344 0.684375)"/>
      <use xlink:href="#DejaVuSerif-72" transform="translate(196.582031 0.684375)"/>
      <use xlink:href="#DejaVuSerif-67" transform="translate(244.384766 0.684375)"/>
      <use xlink:href="#DejaVuSerif-79" transform="translate(308.398438 0.684375)"/>
      <use xlink:href="#DejaVuSerif-20" transform="translate(364.892578 0.684375)"/>
      <use xlink:href="#DejaVuSerif-45" transform="translate(396.679688 0.684375)"/>
      <use xlink:href="#DejaVuSerif-69" transform="translate(469.677734 0.684375)"/>
      <use xlink:href="#DejaVuSerif-67" transform="translate(501.660156 0.684375)"/>
      <use xlink:href="#DejaVuSerif-65" transform="translate(565.673828 0.684375)"/>
      <use xlink:href="#DejaVuSerif-6e" transform="translate(624.853516 0.684375)"/>
      <use xlink:href="#DejaVuSerif-76" transform="translate(689.257812 0.684375)"/>
      <use xlink:href="#DejaVuSerif-61" transform="translate(745.751953 0.684375)"/>
      <use xlink:href="#DejaVuSerif-6c" transform="translate(805.371094 0.684375)"/>
      <use xlink:href="#DejaVuSerif-75" transform="translate(837.353516 0.684375)"/>
      <use xlink:href="#DejaVuSerif-65" transform="translate(901.757812 0.684375)"/>
      <use xlink:href="#DejaVuSerif-20" transform="translate(960.9375 0.684375)"/>
      <use xlink:href="#DejaVuSerif-28" transform="translate(992.724609 0.684375)"/>
      <use xlink:href="#DejaVuSans-Oblique-127" transform="translate(1031.738281 0.684375)"/>
      <use xlink:href="#DejaVuSans-2212" transform="translate(1108.668411 38.965625) scale(0.7)"/>
      <use xlink:href="#DejaVuSans-31" transform="translate(1167.320755 38.965625) scale(0.7)"/>
      <use xlink:href="#DejaVuSerif-29" transform="translate(1214.591263 0.684375)"/>
     </g>
    </g>
   </g>
   <g id="line2d_25">
    <path d="M 266.167135 416.52 
L 266.167135 56.16 
" clip-path="url(#pcadb194c4e)" style="fill: none; stroke-dasharray: 7.4,3.2; stroke-dashoffset: 0; stroke: #b2ccff; stroke-opacity: 0.8; stroke-width: 2"/>
   </g>
   <g id="patch_4">
    <path d="M 108 416.52 
L 108 56.16 
" style="fill: none; stroke: #000000; stroke-linejoin: miter; stroke-linecap: square"/>
   </g>
   <g id="patch_5">
    <path d="M 777.6 416.52 
L 777.6 56.16 
" style="fill: none; stroke: #000000; stroke-linejoin: miter; stroke-linecap: square"/>
   </g>
   <g id="patch_6">
    <path d="M 108 416.52 
L 777.6 416.52 
" style="fill: none; stroke: #000000; stroke-linejoin: miter; stroke-linecap: square"/>
   </g>
   <g id="patch_7">
    <path d="M 108 56.16 
L 777.6 56.16 
" style="fill: none; stroke: #000000; stroke-linejoin: miter; stroke-linecap: square"/>
   </g>
   <g id="text_13">
    <!-- Blockade Radius $R_{B}$ -->
    <g transform="translate(273.428517 119.45265) rotate(-270) scale(0.12 -0.12)">
     <defs>
      <path id="DejaVuSerif-42" d="M 1581 331 
L 2516 331 
Q 3078 331 3337 575 
Q 3597 819 3597 1350 
Q 3597 1878 3339 2120 
Q 3081 2363 2516 2363 
L 1581 2363 
L 1581 331 
z
M 1581 2694 
L 2375 2694 
Q 2888 2694 3123 2891 
Q 3359 3088 3359 3513 
Q 3359 3941 3123 4136 
Q 2888 4331 2375 4331 
L 1581 4331 
L 1581 2694 
z
M 353 0 
L 353 331 
L 947 331 
L 947 4331 
L 353 4331 
L 353 4666 
L 2656 4666 
Q 3363 4666 3720 4377 
Q 4078 4088 4078 3513 
Q 4078 3097 3829 2850 
Q 3581 2603 3103 2547 
Q 3697 2472 4005 2167 
Q 4313 1863 4313 1350 
Q 4313 656 3875 328 
Q 3438 0 2509 0 
L 353 0 
z
" transform="scale(0.015625)"/>
      <path id="DejaVuSerif-6b" d="M 1831 0 
L 219 0 
L 219 331 
L 738 331 
L 738 4531 
L 184 4531 
L 184 4863 
L 1313 4863 
L 1313 1697 
L 2713 2988 
L 2234 2988 
L 2234 3322 
L 3738 3322 
L 3738 2988 
L 3169 2988 
L 2181 2075 
L 3444 331 
L 3922 331 
L 3922 0 
L 2284 0 
L 2284 331 
L 2759 331 
L 1766 1697 
L 1313 1275 
L 1313 331 
L 1831 331 
L 1831 0 
z
" transform="scale(0.015625)"/>
      <path id="DejaVuSerif-64" d="M 3359 331 
L 3909 331 
L 3909 0 
L 2784 0 
L 2784 519 
Q 2616 206 2355 57 
Q 2094 -91 1709 -91 
Q 1097 -91 708 395 
Q 319 881 319 1663 
Q 319 2444 706 2928 
Q 1094 3413 1709 3413 
Q 2094 3413 2355 3264 
Q 2616 3116 2784 2803 
L 2784 4531 
L 2241 4531 
L 2241 4863 
L 3359 4863 
L 3359 331 
z
M 2784 1497 
L 2784 1825 
Q 2784 2422 2554 2737 
Q 2325 3053 1888 3053 
Q 1444 3053 1217 2703 
Q 991 2353 991 1663 
Q 991 975 1217 622 
Q 1444 269 1888 269 
Q 2325 269 2554 583 
Q 2784 897 2784 1497 
z
" transform="scale(0.015625)"/>
      <path id="DejaVuSerif-52" d="M 3066 2316 
Q 3284 2256 3442 2114 
Q 3600 1972 3725 1716 
L 4403 331 
L 4972 331 
L 4972 0 
L 3872 0 
L 3144 1484 
Q 2934 1916 2759 2042 
Q 2584 2169 2278 2169 
L 1581 2169 
L 1581 331 
L 2241 331 
L 2241 0 
L 353 0 
L 353 331 
L 947 331 
L 947 4331 
L 353 4331 
L 353 4666 
L 2719 4666 
Q 3400 4666 3770 4341 
Q 4141 4016 4141 3419 
Q 4141 2938 3870 2661 
Q 3600 2384 3066 2316 
z
M 1581 2503 
L 2503 2503 
Q 2975 2503 3200 2726 
Q 3425 2950 3425 3419 
Q 3425 3888 3200 4109 
Q 2975 4331 2503 4331 
L 1581 4331 
L 1581 2503 
z
" transform="scale(0.015625)"/>
      <path id="DejaVuSans-Oblique-52" d="M 1613 4147 
L 1294 2491 
L 2106 2491 
Q 2584 2491 2879 2755 
Q 3175 3019 3175 3444 
Q 3175 3784 2976 3965 
Q 2778 4147 2406 4147 
L 1613 4147 
z
M 2772 2241 
Q 2972 2194 3105 2009 
Q 3238 1825 3413 1275 
L 3809 0 
L 3144 0 
L 2778 1197 
Q 2638 1659 2453 1815 
Q 2269 1972 1888 1972 
L 1191 1972 
L 806 0 
L 172 0 
L 1081 4666 
L 2503 4666 
Q 3150 4666 3495 4373 
Q 3841 4081 3841 3531 
Q 3841 3044 3547 2687 
Q 3253 2331 2772 2241 
z
" transform="scale(0.015625)"/>
      <path id="DejaVuSans-Oblique-42" d="M 1081 4666 
L 2694 4666 
Q 3350 4666 3675 4422 
Q 4000 4178 4000 3688 
Q 4000 3238 3720 2911 
Q 3441 2584 2988 2516 
Q 3375 2428 3569 2181 
Q 3763 1934 3763 1522 
Q 3763 819 3242 409 
Q 2722 0 1819 0 
L 172 0 
L 1081 4666 
z
M 1234 2228 
L 903 519 
L 1919 519 
Q 2491 519 2800 781 
Q 3109 1044 3109 1522 
Q 3109 1891 2904 2059 
Q 2700 2228 2247 2228 
L 1234 2228 
z
M 1606 4147 
L 1331 2741 
L 2272 2741 
Q 2775 2741 3058 2959 
Q 3341 3178 3341 3566 
Q 3341 3869 3150 4008 
Q 2959 4147 2541 4147 
L 1606 4147 
z
" transform="scale(0.015625)"/>
     </defs>
     <use xlink:href="#DejaVuSerif-42" transform="translate(0 0.015625)"/>
     <use xlink:href="#DejaVuSerif-6c" transform="translate(73.486328 0.015625)"/>
     <use xlink:href="#DejaVuSerif-6f" transform="translate(105.46875 0.015625)"/>
     <use xlink:href="#DejaVuSerif-63" transform="translate(165.673828 0.015625)"/>
     <use xlink:href="#DejaVuSerif-6b" transform="translate(221.679688 0.015625)"/>
     <use xlink:href="#DejaVuSerif-61" transform="translate(282.275391 0.015625)"/>
     <use xlink:href="#DejaVuSerif-64" transform="translate(341.894531 0.015625)"/>
     <use xlink:href="#DejaVuSerif-65" transform="translate(405.908203 0.015625)"/>
     <use xlink:href="#DejaVuSerif-20" transform="translate(465.087891 0.015625)"/>
     <use xlink:href="#DejaVuSerif-52" transform="translate(496.875 0.015625)"/>
     <use xlink:href="#DejaVuSerif-61" transform="translate(572.167969 0.015625)"/>
     <use xlink:href="#DejaVuSerif-64" transform="translate(631.787109 0.015625)"/>
     <use xlink:href="#DejaVuSerif-69" transform="translate(695.800781 0.015625)"/>
     <use xlink:href="#DejaVuSerif-75" transform="translate(727.783203 0.015625)"/>
     <use xlink:href="#DejaVuSerif-73" transform="translate(792.1875 0.015625)"/>
     <use xlink:href="#DejaVuSerif-20" transform="translate(843.505859 0.015625)"/>
     <use xlink:href="#DejaVuSans-Oblique-52" transform="translate(875.292969 0.015625)"/>
     <use xlink:href="#DejaVuSans-Oblique-42" transform="translate(944.775391 -16.390625) scale(0.7)"/>
    </g>
   </g>
   <g id="text_14">
    <!-- $|rr⟩$ -->
    <g transform="translate(76.428947 -95.830359) scale(0.18 -0.18)">
     <defs>
      <path id="DejaVuSans-7c" d="M 1344 4891 
L 1344 -1509 
L 813 -1509 
L 813 4891 
L 1344 4891 
z
" transform="scale(0.015625)"/>
      <path id="DejaVuSans-Oblique-72" d="M 2853 2969 
Q 2766 3016 2653 3041 
Q 2541 3066 2413 3066 
Q 1953 3066 1609 2717 
Q 1266 2369 1153 1784 
L 800 0 
L 225 0 
L 909 3500 
L 1484 3500 
L 1375 2956 
Q 1603 3259 1920 3421 
Q 2238 3584 2597 3584 
Q 2691 3584 2781 3573 
Q 2872 3563 2963 3538 
L 2853 2969 
z
" transform="scale(0.015625)"/>
      <path id="DejaVuSans-27e9" d="M 1925 2006 
L 1044 -844 
L 513 -844 
L 1394 2006 
L 513 4856 
L 1044 4856 
L 1925 2006 
z
" transform="scale(0.015625)"/>
     </defs>
     <use xlink:href="#DejaVuSans-7c" transform="translate(0 0.578125)"/>
     <use xlink:href="#DejaVuSans-Oblique-72" transform="translate(33.691406 0.578125)"/>
     <use xlink:href="#DejaVuSans-Oblique-72" transform="translate(74.804688 0.578125)"/>
     <use xlink:href="#DejaVuSans-27e9" transform="translate(115.917969 0.578125)"/>
    </g>
   </g>
   <g id="legend_1">
    <g id="patch_8">
     <path d="M 680.96 166.24 
L 766.4 166.24 
Q 769.6 166.24 769.6 163.04 
L 769.6 67.36 
Q 769.6 64.16 766.4 64.16 
L 680.96 64.16 
Q 677.76 64.16 677.76 67.36 
L 677.76 163.04 
Q 677.76 166.24 680.96 166.24 
z
" style="fill: #ffffff; opacity: 0.8; stroke: #cccccc; stroke-linejoin: miter"/>
    </g>
    <g id="line2d_26">
     <path d="M 684.16 77.1875 
L 700.16 77.1875 
L 716.16 77.1875 
" style="fill: none; stroke: #1f77b4; stroke-width: 3; stroke-linecap: square"/>
    </g>
    <g id="text_15">
     <!-- |rr⟩ -->
     <g transform="translate(728.96 82.7875) scale(0.16 -0.16)">
      <defs>
       <path id="DejaVuSerif-7c" d="M 1331 4891 
L 1331 -1509 
L 825 -1509 
L 825 4891 
L 1331 4891 
z
" transform="scale(0.015625)"/>
       <path id="DejaVuSerif-27e9" d="M 1925 2006 
L 1044 -844 
L 513 -844 
L 1394 2006 
L 513 4856 
L 1044 4856 
L 1925 2006 
z
" transform="scale(0.015625)"/>
      </defs>
      <use xlink:href="#DejaVuSerif-7c"/>
      <use xlink:href="#DejaVuSerif-72" x="33.691406"/>
      <use xlink:href="#DejaVuSerif-72" x="81.494141"/>
      <use xlink:href="#DejaVuSerif-27e9" x="129.296875"/>
     </g>
    </g>
    <g id="line2d_27">
     <path d="M 684.16 102.24 
L 700.16 102.24 
L 716.16 102.24 
" style="fill: none; stroke: #ff7f0e; stroke-width: 3; stroke-linecap: square"/>
    </g>
    <g id="text_16">
     <!-- |$Ψ^{+}$⟩ -->
     <g transform="translate(728.96 107.84) scale(0.16 -0.16)">
      <defs>
       <path id="DejaVuSans-3a8" d="M 2206 0 
Q 2209 419 2206 969 
Q 1538 969 950 1625 
Q 375 2263 359 3388 
L 359 4666 
L 1025 4666 
L 1025 3388 
Q 1025 2506 1431 1994 
Q 1775 1556 2206 1513 
L 2206 4666 
L 2838 4666 
L 2838 1513 
Q 3269 1556 3613 1994 
Q 4019 2506 4019 3388 
L 4019 4666 
L 4684 4666 
L 4684 3388 
Q 4669 2263 4094 1625 
Q 3506 969 2838 969 
Q 2834 744 2838 0 
L 2206 0 
z
" transform="scale(0.015625)"/>
       <path id="DejaVuSans-2b" d="M 2944 4013 
L 2944 2272 
L 4684 2272 
L 4684 1741 
L 2944 1741 
L 2944 0 
L 2419 0 
L 2419 1741 
L 678 1741 
L 678 2272 
L 2419 2272 
L 2419 4013 
L 2944 4013 
z
" transform="scale(0.015625)"/>
      </defs>
      <use xlink:href="#DejaVuSerif-7c" transform="translate(0 0.826562)"/>
      <use xlink:href="#DejaVuSans-3a8" transform="translate(33.691406 0.826562)"/>
      <use xlink:href="#DejaVuSans-2b" transform="translate(113.359375 39.107812) scale(0.7)"/>
      <use xlink:href="#DejaVuSerif-27e9" transform="translate(174.746094 0.826562)"/>
     </g>
    </g>
    <g id="line2d_28">
     <path d="M 684.16 126.4 
L 700.16 126.4 
L 716.16 126.4 
" style="fill: none; stroke: #2ca02c; stroke-width: 3; stroke-linecap: square"/>
    </g>
    <g id="text_17">
     <!-- |$Ψ^{-}$⟩ -->
     <g transform="translate(728.96 132) scale(0.16 -0.16)">
      <use xlink:href="#DejaVuSerif-7c" transform="translate(0 0.578125)"/>
      <use xlink:href="#DejaVuSans-3a8" transform="translate(33.691406 0.578125)"/>
      <use xlink:href="#DejaVuSans-2212" transform="translate(113.359375 38.859375) scale(0.7)"/>
      <use xlink:href="#DejaVuSerif-27e9" transform="translate(174.746094 0.578125)"/>
     </g>
    </g>
    <g id="line2d_29">
     <path d="M 684.16 150.4675 
L 700.16 150.4675 
L 716.16 150.4675 
" style="fill: none; stroke: #d62728; stroke-width: 3; stroke-linecap: square"/>
    </g>
    <g id="text_18">
     <!-- |00⟩ -->
     <g transform="translate(728.96 156.0675) scale(0.16 -0.16)">
      <use xlink:href="#DejaVuSerif-7c"/>
      <use xlink:href="#DejaVuSerif-30" x="33.691406"/>
      <use xlink:href="#DejaVuSerif-30" x="97.314453"/>
      <use xlink:href="#DejaVuSerif-27e9" x="160.9375"/>
     </g>
    </g>
   </g>
  </g>
  <g id="axes_2">
   <g id="patch_9">
    <path d="M 471.28 205.304 
L 772.6 205.304 
L 772.6 61.16 
L 471.28 61.16 
z
" style="fill: #ffffff"/>
   </g>
   <g id="matplotlib.axis_3">
    <g id="xtick_6">
     <g id="line2d_30">
      <g>
       <use xlink:href="#m9a89f41c21" x="495.068421" y="205.304" style="stroke: #000000"/>
      </g>
     </g>
     <g id="line2d_31">
      <g>
       <use xlink:href="#mcce1dc0766" x="495.068421" y="61.16" style="stroke: #000000"/>
      </g>
     </g>
     <g id="text_19">
      <!-- 11.5 -->
      <g transform="translate(488.388734 213.363062) scale(0.06 -0.06)">
       <defs>
        <path id="DejaVuSerif-2e" d="M 603 325 
Q 603 500 722 622 
Q 841 744 1019 744 
Q 1191 744 1312 622 
Q 1434 500 1434 325 
Q 1434 153 1312 31 
Q 1191 -91 1019 -91 
Q 841 -91 722 29 
Q 603 150 603 325 
z
" transform="scale(0.015625)"/>
       </defs>
       <use xlink:href="#DejaVuSerif-31"/>
       <use xlink:href="#DejaVuSerif-31" x="63.623047"/>
       <use xlink:href="#DejaVuSerif-2e" x="127.246094"/>
       <use xlink:href="#DejaVuSerif-35" x="159.033203"/>
      </g>
     </g>
    </g>
    <g id="xtick_7">
     <g id="line2d_32">
      <g>
       <use xlink:href="#m9a89f41c21" x="534.715789" y="205.304" style="stroke: #000000"/>
      </g>
     </g>
     <g id="line2d_33">
      <g>
       <use xlink:href="#mcce1dc0766" x="534.715789" y="61.16" style="stroke: #000000"/>
      </g>
     </g>
     <g id="text_20">
      <!-- 12.0 -->
      <g transform="translate(528.036102 213.363062) scale(0.06 -0.06)">
       <use xlink:href="#DejaVuSerif-31"/>
       <use xlink:href="#DejaVuSerif-32" x="63.623047"/>
       <use xlink:href="#DejaVuSerif-2e" x="127.246094"/>
       <use xlink:href="#DejaVuSerif-30" x="159.033203"/>
      </g>
     </g>
    </g>
    <g id="xtick_8">
     <g id="line2d_34">
      <g>
       <use xlink:href="#m9a89f41c21" x="574.363158" y="205.304" style="stroke: #000000"/>
      </g>
     </g>
     <g id="line2d_35">
      <g>
       <use xlink:href="#mcce1dc0766" x="574.363158" y="61.16" style="stroke: #000000"/>
      </g>
     </g>
     <g id="text_21">
      <!-- 12.5 -->
      <g transform="translate(567.68347 213.363062) scale(0.06 -0.06)">
       <use xlink:href="#DejaVuSerif-31"/>
       <use xlink:href="#DejaVuSerif-32" x="63.623047"/>
       <use xlink:href="#DejaVuSerif-2e" x="127.246094"/>
       <use xlink:href="#DejaVuSerif-35" x="159.033203"/>
      </g>
     </g>
    </g>
    <g id="xtick_9">
     <g id="line2d_36">
      <g>
       <use xlink:href="#m9a89f41c21" x="614.010526" y="205.304" style="stroke: #000000"/>
      </g>
     </g>
     <g id="line2d_37">
      <g>
       <use xlink:href="#mcce1dc0766" x="614.010526" y="61.16" style="stroke: #000000"/>
      </g>
     </g>
     <g id="text_22">
      <!-- 13.0 -->
      <g transform="translate(607.330839 213.363062) scale(0.06 -0.06)">
       <defs>
        <path id="DejaVuSerif-33" d="M 622 4469 
Q 988 4606 1323 4678 
Q 1659 4750 1953 4750 
Q 2638 4750 3022 4454 
Q 3406 4159 3406 3634 
Q 3406 3213 3140 2930 
Q 2875 2647 2388 2547 
Q 2963 2466 3280 2130 
Q 3597 1794 3597 1259 
Q 3597 606 3158 257 
Q 2719 -91 1894 -91 
Q 1528 -91 1179 -12 
Q 831 66 488 225 
L 488 1131 
L 838 1131 
Q 869 681 1141 450 
Q 1413 219 1906 219 
Q 2384 219 2661 495 
Q 2938 772 2938 1253 
Q 2938 1803 2653 2086 
Q 2369 2369 1819 2369 
L 1522 2369 
L 1522 2688 
L 1678 2688 
Q 2225 2688 2498 2914 
Q 2772 3141 2772 3597 
Q 2772 4006 2547 4223 
Q 2322 4441 1900 4441 
Q 1478 4441 1245 4241 
Q 1013 4041 972 3647 
L 622 3647 
L 622 4469 
z
" transform="scale(0.015625)"/>
       </defs>
       <use xlink:href="#DejaVuSerif-31"/>
       <use xlink:href="#DejaVuSerif-33" x="63.623047"/>
       <use xlink:href="#DejaVuSerif-2e" x="127.246094"/>
       <use xlink:href="#DejaVuSerif-30" x="159.033203"/>
      </g>
     </g>
    </g>
    <g id="xtick_10">
     <g id="line2d_38">
      <g>
       <use xlink:href="#m9a89f41c21" x="653.657895" y="205.304" style="stroke: #000000"/>
      </g>
     </g>
     <g id="line2d_39">
      <g>
       <use xlink:href="#mcce1dc0766" x="653.657895" y="61.16" style="stroke: #000000"/>
      </g>
     </g>
     <g id="text_23">
      <!-- 13.5 -->
      <g transform="translate(646.978207 213.363062) scale(0.06 -0.06)">
       <use xlink:href="#DejaVuSerif-31"/>
       <use xlink:href="#DejaVuSerif-33" x="63.623047"/>
       <use xlink:href="#DejaVuSerif-2e" x="127.246094"/>
       <use xlink:href="#DejaVuSerif-35" x="159.033203"/>
      </g>
     </g>
    </g>
    <g id="xtick_11">
     <g id="line2d_40">
      <g>
       <use xlink:href="#m9a89f41c21" x="693.305263" y="205.304" style="stroke: #000000"/>
      </g>
     </g>
     <g id="line2d_41">
      <g>
       <use xlink:href="#mcce1dc0766" x="693.305263" y="61.16" style="stroke: #000000"/>
      </g>
     </g>
     <g id="text_24">
      <!-- 14.0 -->
      <g transform="translate(686.625576 213.363062) scale(0.06 -0.06)">
       <use xlink:href="#DejaVuSerif-31"/>
       <use xlink:href="#DejaVuSerif-34" x="63.623047"/>
       <use xlink:href="#DejaVuSerif-2e" x="127.246094"/>
       <use xlink:href="#DejaVuSerif-30" x="159.033203"/>
      </g>
     </g>
    </g>
    <g id="xtick_12">
     <g id="line2d_42">
      <g>
       <use xlink:href="#m9a89f41c21" x="732.952632" y="205.304" style="stroke: #000000"/>
      </g>
     </g>
     <g id="line2d_43">
      <g>
       <use xlink:href="#mcce1dc0766" x="732.952632" y="61.16" style="stroke: #000000"/>
      </g>
     </g>
     <g id="text_25">
      <!-- 14.5 -->
      <g transform="translate(726.272944 213.363062) scale(0.06 -0.06)">
       <use xlink:href="#DejaVuSerif-31"/>
       <use xlink:href="#DejaVuSerif-34" x="63.623047"/>
       <use xlink:href="#DejaVuSerif-2e" x="127.246094"/>
       <use xlink:href="#DejaVuSerif-35" x="159.033203"/>
      </g>
     </g>
    </g>
    <g id="xtick_13">
     <g id="line2d_44">
      <g>
       <use xlink:href="#m9a89f41c21" x="772.6" y="205.304" style="stroke: #000000"/>
      </g>
     </g>
     <g id="line2d_45">
      <g>
       <use xlink:href="#mcce1dc0766" x="772.6" y="61.16" style="stroke: #000000"/>
      </g>
     </g>
     <g id="text_26">
      <!-- 15.0 -->
      <g transform="translate(765.920312 213.363062) scale(0.06 -0.06)">
       <use xlink:href="#DejaVuSerif-31"/>
       <use xlink:href="#DejaVuSerif-35" x="63.623047"/>
       <use xlink:href="#DejaVuSerif-2e" x="127.246094"/>
       <use xlink:href="#DejaVuSerif-30" x="159.033203"/>
      </g>
     </g>
    </g>
   </g>
   <g id="matplotlib.axis_4">
    <g id="ytick_6">
     <g id="line2d_46">
      <g>
       <use xlink:href="#m41c8344e5c" x="471.28" y="195.6944" style="stroke: #000000"/>
      </g>
     </g>
     <g id="line2d_47">
      <g>
       <use xlink:href="#mdf0bf89795" x="772.6" y="195.6944" style="stroke: #000000"/>
      </g>
     </g>
     <g id="text_27">
      <!-- −30 -->
      <g transform="translate(455.117188 197.973931) scale(0.06 -0.06)">
       <defs>
        <path id="DejaVuSerif-2212" d="M 678 2259 
L 4684 2259 
L 4684 1753 
L 678 1753 
L 678 2259 
z
" transform="scale(0.015625)"/>
       </defs>
       <use xlink:href="#DejaVuSerif-2212"/>
       <use xlink:href="#DejaVuSerif-33" x="83.789062"/>
       <use xlink:href="#DejaVuSerif-30" x="147.412109"/>
      </g>
     </g>
    </g>
    <g id="ytick_7">
     <g id="line2d_48">
      <g>
       <use xlink:href="#m41c8344e5c" x="471.28" y="176.4752" style="stroke: #000000"/>
      </g>
     </g>
     <g id="line2d_49">
      <g>
       <use xlink:href="#mdf0bf89795" x="772.6" y="176.4752" style="stroke: #000000"/>
      </g>
     </g>
     <g id="text_28">
      <!-- −20 -->
      <g transform="translate(455.117188 178.754731) scale(0.06 -0.06)">
       <use xlink:href="#DejaVuSerif-2212"/>
       <use xlink:href="#DejaVuSerif-32" x="83.789062"/>
       <use xlink:href="#DejaVuSerif-30" x="147.412109"/>
      </g>
     </g>
    </g>
    <g id="ytick_8">
     <g id="line2d_50">
      <g>
       <use xlink:href="#m41c8344e5c" x="471.28" y="157.256" style="stroke: #000000"/>
      </g>
     </g>
     <g id="line2d_51">
      <g>
       <use xlink:href="#mdf0bf89795" x="772.6" y="157.256" style="stroke: #000000"/>
      </g>
     </g>
     <g id="text_29">
      <!-- −10 -->
      <g transform="translate(455.117188 159.535531) scale(0.06 -0.06)">
       <use xlink:href="#DejaVuSerif-2212"/>
       <use xlink:href="#DejaVuSerif-31" x="83.789062"/>
       <use xlink:href="#DejaVuSerif-30" x="147.412109"/>
      </g>
     </g>
    </g>
    <g id="ytick_9">
     <g id="line2d_52">
      <g>
       <use xlink:href="#m41c8344e5c" x="471.28" y="138.0368" style="stroke: #000000"/>
      </g>
     </g>
     <g id="line2d_53">
      <g>
       <use xlink:href="#mdf0bf89795" x="772.6" y="138.0368" style="stroke: #000000"/>
      </g>
     </g>
     <g id="text_30">
      <!-- 0 -->
      <g transform="translate(463.9625 140.316331) scale(0.06 -0.06)">
       <use xlink:href="#DejaVuSerif-30"/>
      </g>
     </g>
    </g>
    <g id="ytick_10">
     <g id="line2d_54">
      <g>
       <use xlink:href="#m41c8344e5c" x="471.28" y="118.8176" style="stroke: #000000"/>
      </g>
     </g>
     <g id="line2d_55">
      <g>
       <use xlink:href="#mdf0bf89795" x="772.6" y="118.8176" style="stroke: #000000"/>
      </g>
     </g>
     <g id="text_31">
      <!-- 10 -->
      <g transform="translate(460.145 121.097131) scale(0.06 -0.06)">
       <use xlink:href="#DejaVuSerif-31"/>
       <use xlink:href="#DejaVuSerif-30" x="63.623047"/>
      </g>
     </g>
    </g>
    <g id="ytick_11">
     <g id="line2d_56">
      <g>
       <use xlink:href="#m41c8344e5c" x="471.28" y="99.5984" style="stroke: #000000"/>
      </g>
     </g>
     <g id="line2d_57">
      <g>
       <use xlink:href="#mdf0bf89795" x="772.6" y="99.5984" style="stroke: #000000"/>
      </g>
     </g>
     <g id="text_32">
      <!-- 20 -->
      <g transform="translate(460.145 101.877931) scale(0.06 -0.06)">
       <use xlink:href="#DejaVuSerif-32"/>
       <use xlink:href="#DejaVuSerif-30" x="63.623047"/>
      </g>
     </g>
    </g>
    <g id="ytick_12">
     <g id="line2d_58">
      <g>
       <use xlink:href="#m41c8344e5c" x="471.28" y="80.3792" style="stroke: #000000"/>
      </g>
     </g>
     <g id="line2d_59">
      <g>
       <use xlink:href="#mdf0bf89795" x="772.6" y="80.3792" style="stroke: #000000"/>
      </g>
     </g>
     <g id="text_33">
      <!-- 30 -->
      <g transform="translate(460.145 82.658731) scale(0.06 -0.06)">
       <use xlink:href="#DejaVuSerif-33"/>
       <use xlink:href="#DejaVuSerif-30" x="63.623047"/>
      </g>
     </g>
    </g>
    <g id="ytick_13">
     <g id="line2d_60">
      <g>
       <use xlink:href="#m41c8344e5c" x="471.28" y="61.16" style="stroke: #000000"/>
      </g>
     </g>
     <g id="line2d_61">
      <g>
       <use xlink:href="#mdf0bf89795" x="772.6" y="61.16" style="stroke: #000000"/>
      </g>
     </g>
     <g id="text_34">
      <!-- 40 -->
      <g transform="translate(460.145 63.439531) scale(0.06 -0.06)">
       <use xlink:href="#DejaVuSerif-34"/>
       <use xlink:href="#DejaVuSerif-30" x="63.623047"/>
      </g>
     </g>
    </g>
   </g>
   <g id="line2d_62">
    <path d="M 103.800675 -1 
L 110.609091 8.097727 
L 118.218182 17.160124 
L 125.827273 25.231002 
L 133.436364 32.411235 
L 141.045455 38.790852 
L 148.654545 44.450738 
L 156.263636 49.464063 
L 163.872727 53.897445 
L 171.481818 57.811839 
L 179.090909 61.26319 
L 186.7 64.302871 
L 194.309091 66.977952 
L 201.918182 69.331365 
L 209.527273 71.402025 
L 217.136364 73.224943 
L 224.745455 74.83137 
L 232.354545 76.248993 
L 239.963636 77.502169 
L 247.572727 78.612196 
L 255.181818 79.597606 
L 262.790909 80.474462 
L 270.4 81.256649 
L 278.009091 81.956148 
L 285.618182 82.583288 
L 293.227273 83.146973 
L 300.836364 83.654883 
L 308.445455 84.113647 
L 316.054545 84.529001 
L 323.663636 84.905909 
L 331.272727 85.248682 
L 338.881818 85.561071 
L 346.490909 85.846346 
L 354.1 86.107365 
L 361.709091 86.346634 
L 369.318182 86.566353 
L 376.927273 86.768462 
L 384.536364 86.954671 
L 392.145455 87.126497 
L 399.754545 87.285283 
L 407.363636 87.432226 
L 414.972727 87.568392 
L 422.581818 87.694734 
L 430.190909 87.812103 
L 437.8 87.921266 
L 445.409091 88.022912 
L 453.018182 88.117659 
L 460.627273 88.206068 
L 468.236364 88.288645 
L 475.845455 88.365848 
L 483.454545 88.438094 
L 491.063636 88.50576 
L 498.672727 88.569191 
L 506.281818 88.628701 
L 513.890909 88.684577 
L 521.5 88.73708 
L 529.109091 88.786451 
L 536.718182 88.83291 
L 544.327273 88.876659 
L 551.936364 88.917883 
L 559.545455 88.956754 
L 567.154545 88.993428 
L 574.763636 89.028052 
L 582.372727 89.060759 
L 589.981818 89.091674 
L 597.590909 89.12091 
L 605.2 89.148574 
L 612.809091 89.174765 
L 620.418182 89.199573 
L 628.027273 89.223084 
L 635.636364 89.245376 
L 643.245455 89.266523 
L 650.854545 89.286593 
L 658.463636 89.305649 
L 666.072727 89.323751 
L 673.681818 89.340954 
L 681.290909 89.35731 
L 688.9 89.372867 
L 696.509091 89.387669 
L 704.118182 89.40176 
L 711.727273 89.415178 
L 719.336364 89.427961 
L 726.945455 89.440144 
L 734.554545 89.451758 
L 742.163636 89.462834 
L 749.772727 89.473401 
L 757.381818 89.483487 
L 764.990909 89.493115 
L 772.6 89.50231 
" clip-path="url(#p86ad2d53cb)" style="fill: none; stroke: #1f77b4; stroke-width: 1.5; stroke-linecap: square"/>
   </g>
   <g id="line2d_63">
    <path d="M 19.3 105.535608 
L 26.909091 105.728852 
L 34.518182 105.942028 
L 42.127273 106.177002 
L 49.736364 106.435788 
L 57.345455 106.720545 
L 64.954545 107.033572 
L 72.563636 107.377286 
L 80.172727 107.754191 
L 87.781818 108.166836 
L 95.390909 108.617735 
L 103 109.10928 
L 110.609091 109.643613 
L 118.218182 110.222468 
L 125.827273 110.846999 
L 133.436364 111.517575 
L 141.045455 112.233585 
L 148.654545 112.993273 
L 156.263636 113.793612 
L 163.872727 114.630276 
L 171.481818 115.497712 
L 179.090909 116.38932 
L 186.7 117.297742 
L 194.309091 118.215206 
L 201.918182 119.133909 
L 209.527273 120.04637 
L 217.136364 120.945723 
L 224.745455 121.825942 
L 232.354545 122.681958 
L 239.963636 123.509712 
L 247.572727 124.30613 
L 255.181818 125.06905 
L 262.790909 125.797124 
L 270.4 126.489702 
L 278.009091 127.146712 
L 285.618182 127.768547 
L 293.227273 128.355964 
L 300.836364 128.909994 
L 308.445455 129.431865 
L 316.054545 129.922936 
L 323.663636 130.384654 
L 331.272727 130.818502 
L 338.881818 131.225978 
L 346.490909 131.608562 
L 354.1 131.967703 
L 361.709091 132.304806 
L 369.318182 132.621218 
L 376.927273 132.918228 
L 384.536364 133.197061 
L 392.145455 133.458876 
L 399.754545 133.704766 
L 407.363636 133.935759 
L 414.972727 134.152823 
L 422.581818 134.356861 
L 430.190909 134.548721 
L 437.8 134.729194 
L 445.409091 134.899019 
L 453.018182 135.058887 
L 460.627273 135.20944 
L 468.236364 135.351278 
L 475.845455 135.48496 
L 483.454545 135.611007 
L 491.063636 135.729904 
L 498.672727 135.842104 
L 506.281818 135.948028 
L 513.890909 136.048068 
L 521.5 136.142591 
L 529.109091 136.231938 
L 536.718182 136.316426 
L 544.327273 136.396354 
L 551.936364 136.471998 
L 559.545455 136.543616 
L 567.154545 136.61145 
L 574.763636 136.675725 
L 582.372727 136.736652 
L 589.981818 136.794427 
L 597.590909 136.849236 
L 605.2 136.901248 
L 612.809091 136.950627 
L 620.418182 136.997523 
L 628.027273 137.042077 
L 635.636364 137.084421 
L 643.245455 137.124679 
L 650.854545 137.162968 
L 658.463636 137.199397 
L 666.072727 137.234067 
L 673.681818 137.267076 
L 681.290909 137.298514 
L 688.9 137.328464 
L 696.509091 137.357008 
L 704.118182 137.384219 
L 711.727273 137.410169 
L 719.336364 137.434923 
L 726.945455 137.458545 
L 734.554545 137.481092 
L 742.163636 137.502621 
L 749.772727 137.523183 
L 757.381818 137.542829 
L 764.990909 137.561603 
L 772.6 137.57955 
" clip-path="url(#p86ad2d53cb)" style="fill: none; stroke: #ff7f0e; stroke-width: 1.5; stroke-linecap: square"/>
   </g>
   <g id="line2d_64">
    <path d="M 19.3 138.0368 
L 26.909091 138.0368 
L 34.518182 138.0368 
L 42.127273 138.0368 
L 49.736364 138.0368 
L 57.345455 138.0368 
L 64.954545 138.0368 
L 72.563636 138.0368 
L 80.172727 138.0368 
L 87.781818 138.0368 
L 95.390909 138.0368 
L 103 138.0368 
L 110.609091 138.0368 
L 118.218182 138.0368 
L 125.827273 138.0368 
L 133.436364 138.0368 
L 141.045455 138.0368 
L 148.654545 138.0368 
L 156.263636 138.0368 
L 163.872727 138.0368 
L 171.481818 138.0368 
L 179.090909 138.0368 
L 186.7 138.0368 
L 194.309091 138.0368 
L 201.918182 138.0368 
L 209.527273 138.0368 
L 217.136364 138.0368 
L 224.745455 138.0368 
L 232.354545 138.0368 
L 239.963636 138.0368 
L 247.572727 138.0368 
L 255.181818 138.0368 
L 262.790909 138.0368 
L 270.4 138.0368 
L 278.009091 138.0368 
L 285.618182 138.0368 
L 293.227273 138.0368 
L 300.836364 138.0368 
L 308.445455 138.0368 
L 316.054545 138.0368 
L 323.663636 138.0368 
L 331.272727 138.0368 
L 338.881818 138.0368 
L 346.490909 138.0368 
L 354.1 138.0368 
L 361.709091 138.0368 
L 369.318182 138.0368 
L 376.927273 138.0368 
L 384.536364 138.0368 
L 392.145455 138.0368 
L 399.754545 138.0368 
L 407.363636 138.0368 
L 414.972727 138.0368 
L 422.581818 138.0368 
L 430.190909 138.0368 
L 437.8 138.0368 
L 445.409091 138.0368 
L 453.018182 138.0368 
L 460.627273 138.0368 
L 468.236364 138.0368 
L 475.845455 138.0368 
L 483.454545 138.0368 
L 491.063636 138.0368 
L 498.672727 138.0368 
L 506.281818 138.0368 
L 513.890909 138.0368 
L 521.5 138.0368 
L 529.109091 138.0368 
L 536.718182 138.0368 
L 544.327273 138.0368 
L 551.936364 138.0368 
L 559.545455 138.0368 
L 567.154545 138.0368 
L 574.763636 138.0368 
L 582.372727 138.0368 
L 589.981818 138.0368 
L 597.590909 138.0368 
L 605.2 138.0368 
L 612.809091 138.0368 
L 620.418182 138.0368 
L 628.027273 138.0368 
L 635.636364 138.0368 
L 643.245455 138.0368 
L 650.854545 138.0368 
L 658.463636 138.0368 
L 666.072727 138.0368 
L 673.681818 138.0368 
L 681.290909 138.0368 
L 688.9 138.0368 
L 696.509091 138.0368 
L 704.118182 138.0368 
L 711.727273 138.0368 
L 719.336364 138.0368 
L 726.945455 138.0368 
L 734.554545 138.0368 
L 742.163636 138.0368 
L 749.772727 138.0368 
L 757.381818 138.0368 
L 764.990909 138.0368 
L 772.6 138.0368 
" clip-path="url(#p86ad2d53cb)" style="fill: none; stroke: #2ca02c; stroke-width: 1.5; stroke-linecap: square"/>
   </g>
   <g id="line2d_65">
    <path d="M 19.3 173.637534 
L 26.909091 173.78313 
L 34.518182 173.93905 
L 42.127273 174.105509 
L 49.736364 174.28266 
L 57.345455 174.470578 
L 64.954545 174.669255 
L 72.563636 174.87859 
L 80.172727 175.098383 
L 87.781818 175.328327 
L 95.390909 175.56801 
L 103 175.816905 
L 110.609091 176.074378 
L 118.218182 176.339689 
L 125.827273 176.612001 
L 133.436364 176.890389 
L 141.045455 177.173853 
L 148.654545 177.461334 
L 156.263636 177.751732 
L 163.872727 178.043921 
L 171.481818 178.336776 
L 179.090909 178.629181 
L 186.7 178.920058 
L 194.309091 179.208374 
L 201.918182 179.493163 
L 209.527273 179.773532 
L 217.136364 180.048673 
L 224.745455 180.317868 
L 232.354545 180.580494 
L 239.963636 180.836021 
L 247.572727 181.084015 
L 255.181818 181.324132 
L 262.790909 181.556111 
L 270.4 181.779775 
L 278.009091 181.995019 
L 285.618182 182.201802 
L 293.227273 182.400145 
L 300.836364 182.590119 
L 308.445455 182.771839 
L 316.054545 182.945458 
L 323.663636 183.111161 
L 331.272727 183.269156 
L 338.881818 183.419674 
L 346.490909 183.562959 
L 354.1 183.699266 
L 361.709091 183.828859 
L 369.318182 183.952004 
L 376.927273 184.068971 
L 384.536364 184.180026 
L 392.145455 184.285434 
L 399.754545 184.385455 
L 407.363636 184.480344 
L 414.972727 184.570349 
L 422.581818 184.655709 
L 430.190909 184.736656 
L 437.8 184.813415 
L 445.409091 184.8862 
L 453.018182 184.955218 
L 460.627273 185.020664 
L 468.236364 185.082727 
L 475.845455 185.141588 
L 483.454545 185.197415 
L 491.063636 185.250373 
L 498.672727 185.300614 
L 506.281818 185.348285 
L 513.890909 185.393526 
L 521.5 185.436467 
L 529.109091 185.477233 
L 536.718182 185.515941 
L 544.327273 185.552703 
L 551.936364 185.587624 
L 559.545455 185.620803 
L 567.154545 185.652335 
L 574.763636 185.682308 
L 582.372727 185.710806 
L 589.981818 185.737908 
L 597.590909 185.763688 
L 605.2 185.788218 
L 612.809091 185.811563 
L 620.418182 185.833787 
L 628.027273 185.854948 
L 635.636364 185.875103 
L 643.245455 185.894305 
L 650.854545 185.912603 
L 658.463636 185.930044 
L 666.072727 185.946672 
L 673.681818 185.962531 
L 681.290909 185.977658 
L 688.9 185.992093 
L 696.509091 186.005869 
L 704.118182 186.019021 
L 711.727273 186.031579 
L 719.336364 186.043575 
L 726.945455 186.055035 
L 734.554545 186.065987 
L 742.163636 186.076456 
L 749.772727 186.086466 
L 757.381818 186.096039 
L 764.990909 186.105196 
L 772.6 186.113958 
" clip-path="url(#p86ad2d53cb)" style="fill: none; stroke: #d62728; stroke-width: 1.5; stroke-linecap: square"/>
   </g>
   <g id="patch_10">
    <path d="M 633.834211 136.691456 
L 637.798947 140.535296 
L 633.873858 140.535296 
L 633.873858 186.0848 
L 633.794563 186.0848 
L 633.794563 140.535296 
L 629.869474 140.535296 
z
" clip-path="url(#p86ad2d53cb)" style="stroke: #000000; stroke-width: 2; stroke-linejoin: miter"/>
   </g>
   <g id="patch_11">
    <path d="M 653.657895 88.643456 
L 657.622632 92.487296 
L 653.697542 92.487296 
L 653.697542 138.0368 
L 653.618247 138.0368 
L 653.618247 92.487296 
L 649.693158 92.487296 
z
" clip-path="url(#p86ad2d53cb)" style="stroke: #000000; stroke-width: 2; stroke-linejoin: miter"/>
   </g>
   <g id="patch_12">
    <path d="M 471.28 205.304 
L 471.28 61.16 
" style="fill: none; stroke: #000000; stroke-linejoin: miter; stroke-linecap: square"/>
   </g>
   <g id="patch_13">
    <path d="M 772.6 205.304 
L 772.6 61.16 
" style="fill: none; stroke: #000000; stroke-linejoin: miter; stroke-linecap: square"/>
   </g>
   <g id="patch_14">
    <path d="M 471.28 205.304 
L 772.6 205.304 
" style="fill: none; stroke: #000000; stroke-linejoin: miter; stroke-linecap: square"/>
   </g>
   <g id="patch_15">
    <path d="M 471.28 61.16 
L 772.6 61.16 
" style="fill: none; stroke: #000000; stroke-linejoin: miter; stroke-linecap: square"/>
   </g>
   <g id="text_35">
    <!-- $Ω$ -->
    <g transform="translate(639.568421 167.43676) scale(0.16 -0.16)">
     <defs>
      <path id="DejaVuSans-3a9" d="M 4647 556 
L 4647 0 
L 2772 0 
L 2772 556 
Q 3325 859 3634 1378 
Q 3944 1897 3944 2528 
Q 3944 3278 3531 3731 
Q 3119 4184 2444 4184 
Q 1769 4184 1355 3729 
Q 941 3275 941 2528 
Q 941 1897 1250 1378 
Q 1563 859 2119 556 
L 2119 0 
L 244 0 
L 244 556 
L 1241 556 
Q 747 991 519 1456 
Q 294 1922 294 2497 
Q 294 3491 894 4106 
Q 1491 4722 2444 4722 
Q 3391 4722 3994 4106 
Q 4594 3494 4594 2528 
Q 4594 1922 4372 1459 
Q 4150 997 3647 556 
L 4647 556 
z
" transform="scale(0.015625)"/>
     </defs>
     <use xlink:href="#DejaVuSans-3a9" transform="translate(0 0.21875)"/>
    </g>
   </g>
   <g id="text_36">
    <!-- $Ω$ -->
    <g transform="translate(659.392105 117.46684) scale(0.16 -0.16)">
     <use xlink:href="#DejaVuSans-3a9" transform="translate(0 0.21875)"/>
    </g>
   </g>
  </g>
 </g>
 <defs>
  <clipPath id="pcadb194c4e">
   <rect x="108" y="56.16" width="669.6" height="360.36"/>
  </clipPath>
  <clipPath id="p86ad2d53cb">
   <rect x="471.28" y="61.16" width="301.32" height="144.144"/>
  </clipPath>
 </defs>
</svg>
